<svg width="12" height="22" viewBox="0 0 12 22" fill="none" xmlns="http://www.w3.org/2000/svg">
<path d="M7.61898 12.5553H10.238L11.2856 8.31248H7.61898V6.19106C7.61898 5.7102 7.64691 5.3637 7.70279 5.15156C7.7866 4.81213 7.96818 4.55048 8.24755 4.36663C8.56882 4.16863 9.05771 4.06963 9.71422 4.06963H11.2856V0.505627C11.0482 0.477341 10.678 0.449057 10.1752 0.420771C9.51866 0.378342 8.89009 0.357126 8.28945 0.357126C7.33961 0.357126 6.49803 0.551592 5.76469 0.940519C5.03136 1.32945 4.46215 1.88456 4.05707 2.60584C3.63803 3.3837 3.4285 4.29591 3.4285 5.34248V8.31248H0.285645V12.5553H3.4285V21.5714H7.61898V12.5553Z" fill="white"/>
</svg>
