<svg width="22" height="22" viewBox="0 0 22 22" fill="none" xmlns="http://www.w3.org/2000/svg">
<path d="M10.6071 7.78213C10.0273 7.78213 9.49339 7.92356 9.00546 8.20641C8.51754 8.48927 8.13214 8.87466 7.84929 9.36259C7.56643 9.85052 7.425 10.3844 7.425 10.9643C7.425 11.5441 7.56643 12.078 7.84929 12.5659C8.13214 13.0539 8.51754 13.4393 9.00546 13.7221C9.49339 14.005 10.0273 14.1464 10.6071 14.1464C11.187 14.1464 11.7209 14.005 12.2088 13.7221C12.6967 13.4393 13.0821 13.0539 13.365 12.5659C13.6479 12.078 13.7893 11.5441 13.7893 10.9643C13.7893 10.3844 13.6479 9.85052 13.365 9.36259C13.0821 8.87466 12.6967 8.48927 12.2088 8.20641C11.7209 7.92356 11.187 7.78213 10.6071 7.78213ZM10.6071 5.6607C11.5689 5.6607 12.4563 5.89759 13.2695 6.37138C14.0827 6.84516 14.7262 7.48866 15.2 8.30188C15.6738 9.11509 15.9107 10.0026 15.9107 10.9643C15.9107 11.926 15.6738 12.8134 15.2 13.6267C14.7262 14.4399 14.0827 15.0834 13.2695 15.5572C12.4563 16.0309 11.5689 16.2678 10.6071 16.2678C9.64543 16.2678 8.75796 16.0309 7.94475 15.5572C7.13154 15.0834 6.48804 14.4399 6.01425 13.6267C5.54046 12.8134 5.30357 11.926 5.30357 10.9643C5.30357 10.0026 5.54046 9.11509 6.01425 8.30188C6.48804 7.48866 7.13154 6.84516 7.94475 6.37138C8.75796 5.89759 9.64543 5.6607 10.6071 5.6607ZM17.5018 5.38491C17.5018 5.75263 17.371 6.06731 17.1093 6.32895C16.8477 6.59059 16.5365 6.72141 16.1759 6.72141C15.8152 6.72141 15.5041 6.59059 15.2425 6.32895C14.9808 6.06731 14.85 5.75616 14.85 5.39552C14.85 5.03488 14.9808 4.72373 15.2425 4.46209C15.5041 4.20045 15.8152 4.06963 16.1759 4.06963C16.5365 4.06963 16.8477 4.20045 17.1093 4.46209C17.371 4.72373 17.5018 5.03841 17.5018 5.40613V5.38491ZM10.6071 2.47856C9.306 2.47856 8.42207 2.48209 7.95536 2.48916C7.48864 2.49623 6.95121 2.51391 6.34307 2.5422C5.57936 2.57048 4.94293 2.6907 4.43379 2.90284C3.99536 3.05841 3.60996 3.30238 3.27761 3.63473C2.94525 3.96709 2.69421 4.35248 2.5245 4.79091C2.3265 5.30005 2.21336 5.93648 2.18507 6.7002C2.15679 7.28006 2.13911 7.7998 2.13204 8.25945C2.12496 8.71909 2.12143 9.6207 2.12143 10.9643C2.12143 12.2654 2.12496 13.1493 2.13204 13.6161C2.13911 14.0828 2.15679 14.6202 2.18507 15.2283C2.21336 15.9921 2.3265 16.6285 2.5245 17.1376C2.70836 17.5761 2.96293 17.9614 3.28821 18.2938C3.6135 18.6262 3.99536 18.8701 4.43379 19.0257C4.94293 19.2378 5.57936 19.3581 6.34307 19.3863C6.92293 19.4146 7.44268 19.4323 7.90232 19.4394C8.36196 19.4464 9.26357 19.45 10.6071 19.45C11.9083 19.45 12.7922 19.4464 13.2589 19.4394C13.7256 19.4323 14.2631 19.4146 14.8712 19.3863C15.6349 19.3581 16.2714 19.2449 16.7805 19.0469C17.2189 18.8631 17.6043 18.6085 17.9367 18.2832C18.269 17.9579 18.5201 17.5761 18.6898 17.1376C18.8878 16.6285 19.0009 15.9921 19.0292 15.2283C19.0575 14.6485 19.0752 14.1287 19.0822 13.6691C19.0893 13.2094 19.0929 12.3078 19.0929 10.9643C19.0929 9.66313 19.0893 8.7792 19.0822 8.31248C19.0752 7.84577 19.0575 7.30834 19.0292 6.7002C19.0009 5.93648 18.8807 5.30005 18.6686 4.79091C18.513 4.35248 18.269 3.96709 17.9367 3.63473C17.6043 3.30238 17.2189 3.05134 16.7805 2.88163C16.2714 2.68363 15.6349 2.57048 14.8712 2.5422C14.2914 2.51391 13.7716 2.49623 13.312 2.48916C12.8523 2.48209 11.9507 2.47856 10.6071 2.47856ZM10.6071 0.357126C11.9931 0.357126 12.9407 0.364199 13.4499 0.378342C13.8741 0.378342 14.3833 0.392485 14.9773 0.420771C15.9673 0.463198 16.8229 0.625841 17.5442 0.908699C18.2655 1.19156 18.8984 1.6017 19.4429 2.13913C19.9874 2.67656 20.3975 3.30591 20.6733 4.0272C20.9491 4.74848 21.1082 5.60413 21.1506 6.59413C21.1789 7.20227 21.1931 7.71141 21.1931 8.12156C21.2072 8.65898 21.2143 9.61363 21.2143 10.9855C21.2143 12.3573 21.2072 13.2978 21.1931 13.807C21.1931 14.2313 21.1789 14.7404 21.1506 15.3344C21.1082 16.3244 20.9491 17.1801 20.6733 17.9013C20.3975 18.6226 19.9874 19.2555 19.4429 19.8C18.8984 20.3445 18.2655 20.7547 17.5442 21.0304C16.8229 21.3062 15.9673 21.4653 14.9773 21.5078C14.3691 21.5361 13.86 21.5502 13.4499 21.5502C12.9124 21.5643 11.9578 21.5714 10.5859 21.5714C9.21407 21.5714 8.27357 21.5643 7.76443 21.5502C7.34014 21.5502 6.831 21.5361 6.237 21.5078C5.247 21.4653 4.39136 21.3062 3.67007 21.0304C2.94879 20.7547 2.31589 20.3445 1.77139 19.8C1.22689 19.2555 0.81675 18.6226 0.540964 17.9013C0.265179 17.1801 0.106071 16.3244 0.0636429 15.3344C0.0353571 14.7263 0.0212143 14.2171 0.0212143 13.807C0.00707143 13.2696 0 12.3149 0 10.9431C0 9.5712 0.00707143 8.6307 0.0212143 8.12156C0.0212143 7.69727 0.0353571 7.18813 0.0636429 6.59413C0.106071 5.60413 0.265179 4.74848 0.540964 4.0272C0.81675 3.30591 1.22689 2.67302 1.77139 2.12852C2.31589 1.58402 2.94879 1.17388 3.67007 0.898092C4.39136 0.622305 5.247 0.463198 6.237 0.420771C6.84514 0.392485 7.35429 0.378342 7.76443 0.378342C8.30186 0.364199 9.24943 0.357126 10.6071 0.357126Z" fill="white"/>
</svg>
