<svg width="21" height="19" viewBox="0 0 21 19" fill="none" xmlns="http://www.w3.org/2000/svg">
<path d="M4.50108 2.23822C4.50108 2.81092 4.29029 3.3033 3.86872 3.71536C3.44714 4.12743 2.94339 4.33346 2.35747 4.33346C1.77155 4.33346 1.26781 4.12743 0.846231 3.71536C0.424655 3.3033 0.213867 2.80742 0.213867 2.22774C0.213867 1.64806 0.424655 1.15568 0.846231 0.750599C1.26781 0.34552 1.77155 0.142981 2.35747 0.142981C2.94339 0.142981 3.44714 0.349012 3.86872 0.761076C4.29029 1.17314 4.50108 1.66552 4.50108 2.23822ZM4.56539 5.88393H0.278175V19.0001H4.56539V5.88393ZM11.3392 5.88393H7.07341V19.0001H11.2963V12.1068C11.2963 11.3804 11.4749 10.7589 11.8322 10.242C12.1466 9.76711 12.561 9.43885 13.0755 9.25727C13.59 9.07568 14.1044 9.06171 14.6189 9.21536C15.1334 9.36901 15.5549 9.67631 15.8836 10.1373C16.2266 10.6681 16.3981 11.3246 16.3981 12.1068V19.0001H20.6424V10.682C20.6424 9.46679 20.3781 8.43314 19.8493 7.58108C19.3634 6.84076 18.6989 6.28203 17.8558 5.90489C17.0983 5.58362 16.2623 5.44393 15.3477 5.48584C14.476 5.52774 13.6686 5.74076 12.9255 6.12488C12.1823 6.50901 11.6393 7.01536 11.2963 7.64393L11.3392 5.88393Z" fill="white"/>
</svg>
