<svg width="22" height="19" viewBox="0 0 22 19" fill="none" xmlns="http://www.w3.org/2000/svg">
<path d="M22 2.98261C21.1796 3.33036 20.316 3.55988 19.4092 3.67117C19.8842 3.39296 20.2908 3.0452 20.629 2.6279C20.9673 2.21059 21.2228 1.75155 21.3955 1.25078C20.5031 1.76546 19.546 2.12017 18.524 2.31491C17.8332 1.59158 16.9804 1.14993 15.9657 0.989962C14.9509 0.829992 13.9938 0.983007 13.0942 1.449C12.1946 1.915 11.5361 2.5966 11.1187 3.49381C10.7013 4.39102 10.6078 5.31953 10.8381 6.27934C9.02453 6.19588 7.30815 5.75771 5.68891 4.96482C4.06968 4.17194 2.68433 3.09389 1.53288 1.73068C1.12987 2.41229 0.928361 3.14258 0.928361 3.92155C0.928361 4.67271 1.10828 5.36822 1.46811 6.00809C1.82794 6.64796 2.3173 7.16264 2.93621 7.55213C2.20216 7.53822 1.51848 7.35739 0.885182 7.00963V7.07223C0.885182 7.75383 1.03991 8.3937 1.34936 8.99185C1.65882 9.58999 2.08701 10.0977 2.63396 10.515C3.1809 10.9323 3.807 11.2105 4.51227 11.3496C3.83579 11.5166 3.15211 11.5374 2.46124 11.4122C2.76349 12.3025 3.29964 13.0258 4.06968 13.5822C4.83971 14.1386 5.7069 14.4238 6.67125 14.4377C5.73569 15.1611 4.68858 15.6792 3.52993 15.9922C2.37128 16.3052 1.19464 16.3921 0 16.253C1.03631 16.8929 2.14099 17.3797 3.31403 17.7136C4.48708 18.0474 5.68531 18.2144 6.90873 18.2144C8.90939 18.2144 10.7517 17.8388 12.4357 17.0876C13.9758 16.3921 15.3144 15.4184 16.4514 14.1665C17.5165 12.998 18.3441 11.6696 18.9342 10.1812C19.4812 8.7345 19.7547 7.27393 19.7547 5.79944C19.7547 5.63251 19.7547 5.44473 19.7547 5.23607C20.647 4.61011 21.3955 3.85895 22 2.98261Z" fill="white"/>
</svg>
