<svg width="103" height="103" viewBox="0 0 103 103" fill="none" xmlns="http://www.w3.org/2000/svg">
<rect x="21.7422" width="84" height="84" rx="16" transform="rotate(15 21.7422 0)" fill="white" fill-opacity="0.7"/>
<path d="M81.3838 59.4627C76.9526 76.0001 59.9541 85.8142 43.4167 81.383C26.8792 76.9518 17.0652 59.9533 21.4964 43.4159C25.9276 26.8784 42.926 17.0644 59.4635 21.4956C76.0009 25.9268 85.815 42.9252 81.3838 59.4627Z" stroke="#CCDFFC" stroke-width="6"/>
<path d="M74.0868 57.5074C70.7356 70.0142 57.8802 77.4363 45.3734 74.0851C32.8665 70.7339 25.4444 57.8785 28.7956 45.3716C32.1468 32.8648 45.0023 25.4427 57.5091 28.7939C70.0159 32.1451 77.438 45.0006 74.0868 57.5074Z" stroke="#CCDFFC" stroke-width="6"/>
<path d="M66.7899 55.5521C64.5187 64.0283 55.8062 69.0584 47.3301 66.7872C38.8539 64.516 33.8237 55.8036 36.0949 47.3274C38.3661 38.8512 47.0786 33.8211 55.5547 36.0922C64.0309 38.3634 69.0611 47.0759 66.7899 55.5521Z" stroke="#CCDFFC" stroke-width="6"/>
<path d="M59.4635 21.4956C63.4679 22.5686 67.2164 24.4338 70.4873 26.9811C73.7581 29.5283 76.4848 32.7057 78.506 36.3252C80.5272 39.9448 81.8019 43.933 82.2547 48.0539C82.7074 52.1748 82.329 56.3446 81.1418 60.3167C79.9546 64.2888 77.9828 67.9823 75.3429 71.1789C72.7031 74.3755 69.449 77.0101 65.773 78.9269C62.097 80.8436 58.074 82.0036 53.9418 82.3382C49.8096 82.6727 45.6524 82.1751 41.7159 80.8746" stroke="#3E98E3" stroke-width="6" stroke-linecap="round"/>
<path d="M57.5091 28.7939C61.4505 29.85 65.048 31.9165 67.9459 34.7891C70.8439 37.6617 72.9419 41.2409 74.0326 45.1728C75.1233 49.1048 75.1689 53.2533 74.1649 57.2083C73.1608 61.1633 71.1419 64.7877 68.3078 67.7233C65.4737 70.6588 61.9225 72.8039 58.0052 73.9463C54.088 75.0888 49.9404 75.189 45.9726 74.2372C42.0047 73.2854 38.354 71.3145 35.3813 68.5193C32.4086 65.7241 30.2169 62.2015 29.0229 58.2997" stroke="#FF8E70" stroke-width="6" stroke-linecap="round"/>
<path d="M55.5547 36.0922C58.1901 36.7984 60.5991 38.1712 62.55 40.0784C64.5008 41.9857 65.9277 44.3632 66.6931 46.9819C67.4586 49.6006 67.5368 52.3722 66.9204 55.0299C66.3039 57.6876 65.0135 60.1418 63.1733 62.1562" stroke="#0EC0AB" stroke-width="6" stroke-linecap="round"/>
<rect x="22.0957" y="0.612372" width="83" height="83" rx="15.5" transform="rotate(15 22.0957 0.612372)" stroke="#CCDFFC" stroke-opacity="0.6"/>
</svg>
