<svg width="164" height="36" viewBox="0 0 164 36" fill="none" xmlns="http://www.w3.org/2000/svg">
<g clip-path="url(#clip0_388_1773)">
<path d="M34.367 3.86035C34.9058 4.78351 35.071 5.80251 35.0722 6.84608C35.0794 13.9737 35.0734 21.102 35.074 28.2297C35.074 28.7916 34.9962 29.3415 34.8663 29.8861C34.212 32.6406 32.0037 34.6378 29.2112 35.029C28.7737 35.0901 28.3403 35.1141 27.9021 35.1141C22.6565 35.1153 17.4115 35.1171 12.1659 35.1171C11.9474 35.1171 11.7289 35.0967 11.5104 35.0859C11.4966 34.8739 11.5715 34.675 11.7091 34.5366C12.203 34.0388 12.537 33.4175 12.9872 32.8928C13.7492 32.0037 14.3783 31.0069 15.2056 30.1724C15.3307 30.046 15.3469 29.8932 15.3421 29.7309C15.56 29.7249 15.7773 29.7141 15.9952 29.7135C16.8871 29.7117 17.779 29.7189 18.6704 29.7111C19.1127 29.7069 19.1313 29.6782 19.1474 29.2307C19.1522 29.0917 19.1474 28.9527 19.1486 28.8143C19.1546 27.5252 19.1606 26.236 19.1666 24.9468C19.3689 24.9522 19.4749 24.7982 19.6132 24.6886C19.9622 24.4106 20.1064 23.9655 20.4093 23.672C21.0534 23.0484 21.4347 22.2246 22.0734 21.6022C22.247 21.4333 22.2955 21.1883 22.3021 20.9444C22.8828 21.4327 23.3557 22.0341 23.9315 22.5224C24.341 22.8698 24.4445 23.2586 24.4367 23.7714C24.4092 25.5458 24.423 27.3209 24.4266 29.0959C24.4278 29.6494 24.4349 29.653 25.0006 29.6566C25.6381 29.6608 26.2757 29.6512 26.9132 29.6608C27.4364 29.6692 27.4424 29.6782 27.443 29.187C27.4447 26.9135 27.4364 24.6401 27.4495 22.3672C27.4513 22.0365 27.343 21.8053 27.1137 21.583C26.5127 21.0008 25.9327 20.3963 25.3347 19.8104C24.7337 19.2215 24.8588 19.3318 25.337 18.81C26.6642 17.3608 27.422 15.6709 27.4376 13.682C27.4418 13.1638 27.4244 12.6456 27.4166 12.1274C27.8512 12.1604 28.0463 11.8321 28.2529 11.5469C28.4624 11.257 28.6677 10.9688 28.9048 10.6975C29.3208 10.22 29.7266 9.72698 30.0798 9.2022C30.7467 8.21135 31.5698 7.3445 32.2641 6.37821C32.7736 5.66952 33.4248 5.07106 33.8493 4.29887C33.966 4.0868 34.0839 3.87473 34.3682 3.86095L34.367 3.86035Z" fill="#FB8989"/>
<path d="M2.25141 33.3106C1.0955 32.3826 0.469953 31.1408 0.141317 29.7246C0.0371593 29.2753 0.00663034 28.82 0.00663034 28.3587C0.00962338 21.1544 0.0281802 13.9495 4.56512e-05 6.74453C-0.0113279 3.80193 2.10296 0.620304 5.84006 0.0517928C6.09507 0.0128536 6.35726 0.0134527 6.61586 0.0134527C13.255 0.0110564 19.8936 0.0116555 26.5327 0.0122546C26.6321 0.0122546 26.7315 0.0236368 26.8308 0.0302265C26.8518 0.240498 26.78 0.430401 26.6584 0.589153C26.3214 1.02946 25.9701 1.45899 25.6247 1.89212C25.1434 2.49537 24.6537 3.09264 24.1826 3.70368C23.772 4.23685 23.411 4.80716 22.9477 5.30198C22.7489 5.51405 22.5418 5.74349 22.5113 6.0622C21.5559 5.77285 20.5946 5.5464 19.5829 5.55C15.7752 5.56198 11.968 5.55479 8.16027 5.55599C7.57483 5.55599 7.57483 5.55958 7.57004 6.14846C7.57004 6.20837 7.57004 6.26827 7.57004 6.32818C7.56944 12.8741 7.56884 19.4201 7.56705 25.9655C7.56705 26.2243 7.55208 26.4831 7.5437 26.7425C7.44134 26.7508 7.35155 26.7844 7.27493 26.8557C6.80921 27.2918 6.42131 27.7938 6.06215 28.3174C5.89394 28.5624 5.76644 28.8374 5.55453 29.0501C5.06247 29.5431 4.65841 30.1098 4.21065 30.64C4.04244 30.8389 3.99456 31.1114 3.79402 31.2906C3.15172 31.8657 2.67582 32.5684 2.25141 33.3106Z" fill="#F57188"/>
<path d="M55.1576 18.9929C55.227 19.2391 55.3982 19.2247 55.5161 19.2648C56.4607 19.5853 57.1886 20.1826 57.734 21.0033C58.0422 21.4676 58.323 21.9511 58.6031 22.4339C59.5436 24.0544 60.4798 25.6778 61.4124 27.3031C61.5088 27.4714 61.6524 27.6224 61.6626 27.8351C61.5644 27.9926 61.4106 27.9195 61.2855 27.9207C60.3086 27.9273 59.3316 27.9075 58.3553 27.9333C58.0057 27.9423 57.8232 27.8147 57.6567 27.5223C56.6505 25.7557 55.6263 23.9992 54.6086 22.2392C54.5488 22.1356 54.4889 22.0319 54.4314 21.9271C53.7113 20.6079 52.5841 19.9166 51.1026 19.8226C49.5498 19.7243 47.9934 19.7998 46.4388 19.78C46.2389 19.7776 46.1455 19.8519 46.1575 20.0574C46.1653 20.1964 46.1575 20.3366 46.1575 20.4762C46.1575 22.7316 46.1575 24.9865 46.1575 27.242C46.1575 27.3816 46.1575 27.5211 46.1557 27.6613C46.1545 27.8207 46.103 27.9243 45.915 27.9231C44.9579 27.9195 44.0013 27.9201 43.0441 27.9231C42.8735 27.9231 42.7825 27.8536 42.7825 27.6787C42.7825 27.5187 42.7807 27.3594 42.7807 27.1994C42.7807 20.6732 42.7795 14.1471 42.7825 7.62145C42.7825 6.87622 42.6664 6.9493 43.4422 6.94871C46.8112 6.94631 50.1807 6.9517 53.5497 6.94631C54.793 6.94451 56.0178 7.06133 57.2018 7.45851C58.8821 8.02283 60.226 8.9999 60.9042 10.6935C61.5124 12.2121 61.5208 13.772 60.9814 15.3164C60.5007 16.6937 59.5274 17.6282 58.2206 18.2267C57.4915 18.561 56.7217 18.7586 55.9244 18.8497C55.6736 18.8785 55.415 18.8767 55.1582 18.9929H55.1576ZM50.4878 17.1699V17.1681C51.6042 17.1681 52.72 17.1639 53.8364 17.1699C54.3375 17.1729 54.8319 17.1226 55.3204 17.0226C56.7355 16.7332 57.543 15.9251 57.786 14.5269C57.892 13.9146 57.8902 13.2904 57.7926 12.6781C57.5831 11.362 56.8289 10.5263 55.5299 10.1926C54.9864 10.0531 54.4362 9.97398 53.8759 9.97338C51.4641 9.97038 49.0524 9.96918 46.6406 9.97098C46.1617 9.97098 46.1551 9.97757 46.1545 10.4688C46.1515 12.544 46.1515 14.6191 46.1545 16.6943C46.1551 17.1633 46.1629 17.1675 46.6603 17.1687C47.9359 17.1711 49.2116 17.1693 50.4872 17.1693L50.4878 17.1699Z" fill="#38427D"/>
<path d="M102.67 17.0452C102.895 16.8996 102.855 16.6959 102.895 16.5378C103.575 13.8102 105.238 12.3701 108.047 12.0783C109.055 11.9735 110.045 12.0586 110.997 12.388C113.018 13.0872 114.086 14.6094 114.55 16.6276C114.589 16.7984 114.567 16.9883 114.702 17.132C114.882 17.1416 114.874 16.9978 114.89 16.8942C114.945 16.5378 115.042 16.1921 115.163 15.8548C115.918 13.7479 117.415 12.5222 119.606 12.1454C120.536 11.9855 121.474 11.9903 122.402 12.1808C124.76 12.6648 126.162 14.1415 126.752 16.4353C126.921 17.0931 126.999 17.7676 126.998 18.45C126.996 21.4243 126.998 24.3993 126.998 27.3736C126.998 27.4737 126.995 27.5731 126.997 27.6732C127.001 27.8475 126.918 27.9242 126.745 27.9236C125.808 27.9218 124.871 27.92 123.934 27.9254C123.725 27.9266 123.647 27.8343 123.656 27.6372C123.662 27.4976 123.656 27.358 123.656 27.2179C123.656 24.6623 123.654 22.1073 123.658 19.5516C123.658 19.0113 123.622 18.4751 123.528 17.9432C123.255 16.4179 122.408 15.5403 120.895 15.2186C120.006 15.0293 119.105 15.0257 118.218 15.1719C116.323 15.4846 115.299 16.6204 115.036 18.6063C114.957 19.2012 114.92 19.7973 114.921 20.3969C114.925 22.7327 114.924 25.0684 114.921 27.4042C114.921 27.9188 114.917 27.9212 114.4 27.923C113.623 27.9254 112.845 27.9266 112.067 27.923C111.586 27.9206 111.58 27.9164 111.579 27.4287C111.577 24.7737 111.578 22.1186 111.576 19.4636C111.576 18.9849 111.558 18.5087 111.471 18.0336C111.156 16.3125 110.291 15.4193 108.573 15.1629C107.685 15.0305 106.786 15.0413 105.896 15.2252C104.467 15.52 103.574 16.373 103.176 17.7712C102.921 18.6656 102.891 19.5822 102.887 20.5C102.879 22.756 102.884 25.0115 102.884 27.2676C102.884 27.4072 102.882 27.5473 102.882 27.6869C102.882 27.8643 102.788 27.926 102.618 27.9254C101.68 27.9218 100.743 27.9194 99.8061 27.9266C99.5618 27.9284 99.4948 27.8097 99.5067 27.5947C99.5133 27.4755 99.5079 27.3551 99.5079 27.2352C99.5079 22.5038 99.5079 17.7724 99.5079 13.041C99.5079 12.941 99.5169 12.8403 99.5061 12.7415C99.4756 12.4623 99.578 12.3497 99.8737 12.3557C100.651 12.3719 101.429 12.3755 102.206 12.3545C102.528 12.3455 102.61 12.4593 102.606 12.7643C102.593 13.9822 102.599 15.1995 102.603 16.4173C102.604 16.6102 102.558 16.8103 102.669 17.0452H102.67Z" fill="#38427D"/>
<path d="M142.475 16.5808V6.994C142.967 6.90234 143.426 6.95805 143.88 6.94967C144.418 6.93948 144.958 6.96285 145.495 6.94128C145.795 6.9293 145.893 7.04312 145.859 7.32288C145.847 7.42113 145.857 7.52237 145.857 7.62242C145.857 14.1516 145.857 20.6802 145.857 27.2094C145.857 28.0445 145.917 27.9169 145.169 27.9235C144.393 27.9301 143.616 27.9247 142.769 27.9247V23.512C142.526 23.4724 142.511 23.6108 142.474 23.7187C142.448 23.7935 142.441 23.875 142.418 23.9517C141.776 26.1065 140.374 27.4742 138.181 27.9852C136.516 28.3734 134.85 28.3231 133.227 27.7749C131.049 27.0393 129.639 25.5105 128.955 23.3418C128.263 21.1499 128.269 18.9285 129.013 16.7497C129.967 13.9581 131.964 12.4371 134.882 12.1028C136.005 11.974 137.112 12.0435 138.2 12.346C140.196 12.9008 141.523 14.1636 142.176 16.1351C142.222 16.2741 142.196 16.4568 142.475 16.5826V16.5808ZM137.035 25.1306C137.853 25.1181 138.667 25.063 139.452 24.8066C141.017 24.2944 142.013 23.2592 142.349 21.6195C142.527 20.7485 142.53 19.8685 142.406 19.0016C142.13 17.0655 141.035 15.8278 139.122 15.3479C137.825 15.0226 136.516 15.0185 135.215 15.2892C133.59 15.6265 132.502 16.576 132.106 18.2234C131.788 19.5432 131.786 20.8701 132.139 22.185C132.505 23.5503 133.393 24.4124 134.734 24.8245C135.485 25.0552 136.259 25.0983 137.035 25.1312V25.1306Z" fill="#38427D"/>
<path d="M160.553 22.3278C161.555 22.3278 162.531 22.3386 163.505 22.3212C163.817 22.3158 163.87 22.4506 163.862 22.716C163.823 24.016 163.329 25.1146 162.415 26.0282C161.726 26.7165 160.909 27.2126 159.999 27.5355C157.557 28.4005 155.078 28.4934 152.607 27.708C149.895 26.8459 148.29 24.9445 147.734 22.1714C147.449 20.7505 147.455 19.3145 147.81 17.8977C148.493 15.1816 150.178 13.3688 152.826 12.5139C154.992 11.8148 157.189 11.8568 159.347 12.5876C162.153 13.5371 163.848 15.8166 163.985 18.7766C164.009 19.2738 164 19.774 163.977 20.2718C163.948 20.8918 163.935 20.893 163.322 20.893C159.535 20.8936 155.747 20.893 151.96 20.893C151.661 20.893 151.361 20.9092 151.063 20.8888C150.766 20.8685 150.677 20.9835 150.711 21.2711C150.794 21.9678 150.914 22.6525 151.227 23.2875C151.884 24.6162 153.053 25.1853 154.434 25.3986C155.604 25.5789 156.779 25.5538 157.941 25.3075C158.232 25.2458 158.521 25.1614 158.798 25.0523C159.844 24.639 160.425 23.8758 160.488 22.7388C160.494 22.6399 160.502 22.5411 160.511 22.4422C160.513 22.423 160.524 22.4045 160.552 22.3284L160.553 22.3278ZM155.767 19.0318C156.964 19.0318 158.16 19.0318 159.356 19.0318C159.735 19.0318 160.114 19.0228 160.493 19.0347C160.75 19.0431 160.854 18.9461 160.836 18.6843C160.733 17.1711 160.27 15.5805 158.044 14.9755C156.551 14.5699 155.042 14.5789 153.557 15.0138C152.187 15.4146 151.314 16.3372 150.944 17.721C150.866 18.0086 150.818 18.3057 150.774 18.601C150.711 19.0192 150.718 19.0294 151.161 19.0306C152.697 19.0347 154.232 19.0324 155.768 19.0324L155.767 19.0318Z" fill="#38427D"/>
<path d="M71.0341 28.2116C69.0976 28.2188 67.4012 27.8564 65.8663 26.905C63.8418 25.65 62.7147 23.8067 62.3615 21.4644C62.1777 20.2435 62.2394 19.0346 62.556 17.8466C63.2061 15.4066 64.714 13.6801 67.0504 12.7624C69.6831 11.7284 72.3642 11.7332 74.9664 12.8564C77.7367 14.0521 79.1985 16.2573 79.5014 19.2412C79.6319 20.5256 79.5278 21.7962 79.0854 23.0165C78.1121 25.6979 76.1432 27.2489 73.4327 27.9336C72.5983 28.1445 71.7459 28.2236 71.0335 28.2122L71.0341 28.2116ZM70.821 25.2025C71.4681 25.2097 72.0625 25.1851 72.6528 25.0659C74.4923 24.6951 75.6913 23.6551 76.0846 21.7801C76.3168 20.6742 76.312 19.5629 76.0738 18.4571C75.6943 16.7 74.6162 15.6325 72.8719 15.2269C71.6507 14.9429 70.4217 14.9286 69.197 15.164C67.4419 15.5013 66.2315 16.4736 65.7957 18.2648C65.4946 19.5036 65.491 20.7557 65.7909 21.9951C66.1668 23.5467 67.154 24.5202 68.6852 24.9503C69.4005 25.151 70.1302 25.2253 70.8216 25.2025H70.821Z" fill="#38427D"/>
<path d="M89.2545 28.2097C87.7442 28.2295 86.3195 27.9797 84.9846 27.3405C82.4932 26.1465 81.0751 24.1552 80.6687 21.4271C80.4741 20.1235 80.5615 18.8368 80.9404 17.5799C81.6348 15.2765 83.1164 13.6447 85.3408 12.7688C87.9938 11.7241 90.6935 11.7283 93.3124 12.8701C96.0541 14.0658 97.5057 16.259 97.811 19.2184C97.9457 20.5231 97.8391 21.8123 97.383 23.0506C96.3977 25.7278 94.4211 27.2674 91.7076 27.9395C90.8911 28.142 90.0596 28.2199 89.2545 28.2091V28.2097ZM89.1533 25.2C89.7908 25.2204 90.4056 25.1826 91.0132 25.0556C92.8246 24.677 94.0056 23.6377 94.3923 21.7877C94.6282 20.6615 94.6216 19.5329 94.3702 18.4072C93.9829 16.6723 92.9054 15.6318 91.1904 15.228C89.9698 14.9405 88.7403 14.9273 87.5155 15.1609C85.761 15.4958 84.5428 16.4627 84.1094 18.2557C83.8 19.5341 83.7976 20.8221 84.1322 22.0999C84.5195 23.5795 85.4815 24.5009 86.9295 24.931C87.6604 25.1479 88.4104 25.2294 89.1539 25.1988L89.1533 25.2Z" fill="#38427D"/>
<path d="M22.5117 6.06233C22.5422 5.74303 22.7494 5.51418 22.9481 5.30152C23.4114 4.80669 23.7724 4.23638 24.183 3.70321C24.6541 3.09217 25.1438 2.4949 25.6251 1.89165C25.9711 1.45792 26.3219 1.029 26.6589 0.588684C26.7804 0.429932 26.8522 0.240628 26.8313 0.0297575C27.9644 0.00459684 29.103 -0.0888571 30.2074 0.269383C32.096 0.881626 33.5297 2.02524 34.3671 3.86017C34.0828 3.87395 33.9649 4.08602 33.8482 4.29808C33.4237 5.07028 32.7725 5.66874 32.263 6.37743C31.5687 7.34372 30.7456 8.21057 30.0787 9.20142C29.7255 9.7262 29.3203 10.2192 28.9037 10.6967C28.6672 10.9681 28.4613 11.2562 28.2518 11.5462C28.0453 11.8313 27.8501 12.1596 27.4155 12.1266C27.291 11.5048 27.0498 10.9195 26.8301 10.3289C26.4212 9.22838 25.7244 8.33038 24.8631 7.54321C24.1657 6.90581 23.3408 6.48227 22.5117 6.06113V6.06233Z" fill="#F87D88"/>
<path d="M2.25098 33.3103C2.67479 32.5681 3.15128 31.8654 3.79359 31.2903C3.99352 31.1112 4.04201 30.8386 4.21022 30.6397C4.65798 30.1095 5.06264 29.5434 5.55409 29.0498C5.7666 28.8371 5.8941 28.5621 6.06171 28.3171C6.42028 27.7935 6.80878 27.2915 7.27449 26.8554C7.35112 26.7835 7.44151 26.75 7.54327 26.7422C7.55225 27.4994 7.56362 28.256 7.56901 29.0132C7.5744 29.7717 7.51753 29.7093 8.29213 29.7117C10.6417 29.7177 12.9918 29.7243 15.3413 29.7309C15.3455 29.8933 15.33 30.046 15.2049 30.1724C14.3776 31.0069 13.749 32.0038 12.9864 32.8928C12.5363 33.4182 12.2022 34.0388 11.7084 34.5366C11.5713 34.675 11.4959 34.8739 11.5096 35.0859C9.55878 35.1039 7.60193 35.2477 5.66005 34.9967C4.35269 34.8277 3.17642 34.2994 2.25098 33.3109V33.3103Z" fill="#F87D88"/>
<path d="M15.342 29.7301C12.9925 29.7235 10.6423 29.7169 8.2928 29.7109C7.5182 29.7091 7.57507 29.7714 7.56969 29.0124C7.5643 28.2552 7.55292 27.4985 7.54395 26.7413C7.55173 26.4825 7.56669 26.2237 7.56729 25.9643C7.56909 19.4184 7.56969 12.8724 7.57028 6.32704C7.57028 6.26713 7.57028 6.20723 7.57028 6.14732C7.57507 5.55844 7.57507 5.55485 8.16051 5.55485C11.9683 5.55365 15.776 5.56084 19.5831 5.54886C20.5948 5.54586 21.5562 5.77171 22.5115 6.06106C23.3412 6.4822 24.1655 6.90574 24.8629 7.54314C25.7243 8.33031 26.421 9.2283 26.8299 10.3288C27.0496 10.9195 27.2902 11.5041 27.4153 12.1266C27.4231 12.6448 27.4405 13.163 27.4363 13.6811C27.4207 15.67 26.6629 17.36 25.3358 18.8091C24.8575 19.3309 24.7324 19.2201 25.3334 19.8096C25.9314 20.3954 26.5108 20.9999 27.1124 21.5822C27.3417 21.8044 27.4501 22.0357 27.4483 22.3664C27.4351 24.6398 27.4435 26.9133 27.4417 29.1861C27.4417 29.6767 27.4357 29.6677 26.9119 29.66C26.2744 29.6498 25.6369 29.66 24.9994 29.6558C24.4337 29.6522 24.4265 29.6486 24.4253 29.095C24.4217 27.32 24.4079 25.545 24.4355 23.7706C24.4432 23.2578 24.3403 22.869 23.9302 22.5215C23.355 22.0333 22.8815 21.4318 22.3008 20.9442C21.9542 20.4793 21.4909 20.1229 21.1084 19.6969C20.0944 18.5683 18.9175 17.608 17.8813 16.5033C17.597 16.2002 17.5533 16.2164 17.251 16.4997C16.6111 17.0976 15.9951 17.72 15.3624 18.3257C13.8503 19.773 12.3951 21.2797 10.9129 22.7582C10.7627 22.9079 10.6801 23.0637 10.6812 23.2823C10.689 24.2396 10.6783 25.1975 10.6878 26.1554C10.692 26.5622 10.7375 26.6119 11.1338 26.6137C12.6483 26.6215 14.1628 26.6125 15.6778 26.6185C15.9586 26.6197 16.0711 26.5101 16.0645 26.2291C16.0532 25.7505 16.0675 25.2712 16.0603 24.7926C16.0567 24.5631 16.0963 24.3678 16.2716 24.1977C16.644 23.8371 17.0109 23.4698 17.3617 23.0888C17.5521 22.8822 17.6844 22.9307 17.8472 23.111C18.1674 23.4656 18.4829 23.8275 18.8301 24.1546C19.0689 24.3792 19.1791 24.6284 19.1659 24.9453C19.1599 26.2345 19.1539 27.5237 19.148 28.8129C19.1474 28.9519 19.1521 29.0909 19.1468 29.2292C19.1306 29.6767 19.112 29.7055 18.6697 29.7097C17.7777 29.7175 16.8864 29.7097 15.9945 29.7121C15.7766 29.7121 15.5593 29.7235 15.3414 29.7295L15.342 29.7301ZM20.2476 8.77302C20.0824 8.61067 19.8717 8.66818 19.6795 8.66818C16.89 8.66399 14.1011 8.66279 11.3116 8.66459C10.7202 8.66459 10.7124 8.67836 10.704 9.26545C10.7034 9.32535 10.704 9.38526 10.704 9.44517C10.704 12.138 10.704 14.8301 10.7064 17.5229C10.7064 17.7212 10.6801 17.9225 10.7483 18.1166C10.6896 18.2915 10.6549 18.4611 10.8566 18.5935C11.6654 18.0279 12.3011 17.2821 12.9919 16.598C14.2675 15.3358 15.527 14.0574 16.7966 12.7891C17.0205 12.5651 17.227 12.25 17.4994 12.1661C17.8693 12.0529 17.9891 12.5597 18.2872 12.6981C18.3051 12.7065 18.3237 12.7143 18.3422 12.722C18.371 12.7736 18.3907 12.8347 18.4308 12.8748C19.7508 14.1999 21.0695 15.5263 22.3972 16.843C22.675 17.1186 22.7432 17.1114 23.0269 16.8047C24.5695 15.1357 24.9371 12.9095 23.6806 10.8823C23.0503 9.86511 22.1631 9.16061 20.9671 8.89882C20.7468 8.74606 20.4966 8.76523 20.2488 8.77362L20.2476 8.77302Z" fill="#FDFDFD"/>
<path d="M19.1663 24.9458C19.1795 24.6289 19.0694 24.3796 18.8305 24.155C18.4833 23.8279 18.1679 23.4661 17.8476 23.1114C17.6848 22.9317 17.5525 22.8832 17.3621 23.0893C17.0113 23.4703 16.6444 23.8375 16.2721 24.1981C16.0967 24.3683 16.0572 24.5636 16.0608 24.793C16.0685 25.2717 16.0536 25.7509 16.0649 26.2296C16.0715 26.5105 15.959 26.6201 15.6782 26.6189C14.1638 26.6124 12.6493 26.6213 11.1342 26.6142C10.7379 26.6124 10.6918 26.562 10.6883 26.1559C10.6787 25.1986 10.6895 24.2407 10.6817 23.2828C10.6799 23.0641 10.7631 22.9083 10.9133 22.7586C12.3955 21.2801 13.8507 19.7728 15.3628 18.3261C15.9955 17.7205 16.6115 17.098 17.2514 16.5002C17.5543 16.2174 17.5974 16.2006 17.8817 16.5038C18.9179 17.6084 20.0948 18.5681 21.1088 19.6974C21.4913 20.1233 21.9547 20.4791 22.3012 20.9446C22.2947 21.1884 22.2462 21.4334 22.0726 21.6024C21.4339 22.2248 21.0526 23.0485 20.4084 23.6722C20.1056 23.9657 19.9613 24.4108 19.6123 24.6888C19.4746 24.7984 19.3681 24.9523 19.1657 24.947L19.1663 24.9458Z" fill="#F87D88"/>
<path d="M18.3414 12.7213C18.3229 12.7135 18.3049 12.7057 18.2863 12.6974C17.9882 12.5584 17.8685 12.0516 17.4986 12.1654C17.2262 12.2493 17.0197 12.5644 16.7958 12.7884C15.5268 14.0572 14.2667 15.335 12.9911 16.5973C12.2997 17.2814 11.6639 18.0272 10.8558 18.5927C10.6547 18.4603 10.6888 18.2908 10.7475 18.1159C11.0222 17.9835 10.9073 17.7313 10.9079 17.5318C10.9157 15.0762 10.9127 12.6207 10.9127 10.1651C10.9127 9.88535 10.9055 9.60619 10.9151 9.32642C10.9288 8.91487 10.9414 8.90708 11.3706 8.8915C11.5101 8.88671 11.6496 8.8903 11.7896 8.8903C14.402 8.8903 17.0143 8.8927 19.6266 8.88731C19.8361 8.88731 20.0702 8.96818 20.2474 8.77289C20.4958 8.7651 20.746 8.74533 20.9657 8.89809C20.9741 8.99933 20.9903 9.10776 21.08 9.16168C21.4021 9.35518 21.3195 9.5301 21.1112 9.77272C20.4036 10.5964 19.7948 11.4998 19.0855 12.3247C18.8712 12.5745 18.6617 12.7249 18.3408 12.7213H18.3414Z" fill="#F57188"/>
<path d="M18.3418 12.7217C18.6632 12.7259 18.8722 12.5749 19.0865 12.3251C19.7952 11.4996 20.4046 10.5968 21.1122 9.77307C21.3205 9.53045 21.4031 9.35492 21.081 9.16203C20.9906 9.10811 20.9745 8.99968 20.9667 8.89844C22.1627 9.16023 23.0498 9.86413 23.6802 10.8819C24.9367 12.9098 24.5697 15.1353 23.0265 16.8043C22.7434 17.111 22.6745 17.1182 22.3968 16.8426C21.0691 15.5259 19.7503 14.1996 18.4304 12.8744C18.3903 12.8343 18.3711 12.7732 18.3418 12.7217Z" fill="#F87D88"/>
<path d="M20.2474 8.77353C20.0702 8.96882 19.8356 8.88735 19.6267 8.88795C17.0144 8.89334 14.402 8.89094 11.7897 8.89094C11.6502 8.89094 11.5102 8.88675 11.3707 8.89214C10.9409 8.90772 10.9289 8.91611 10.9151 9.32706C10.9056 9.60623 10.9127 9.88599 10.9127 10.1658C10.9127 12.6213 10.9157 15.0769 10.908 17.5324C10.9074 17.7319 11.0223 17.9847 10.7475 18.1165C10.6799 17.9224 10.7062 17.7211 10.7062 17.5228C10.7044 14.8301 10.7044 12.1379 10.7038 9.44508C10.7038 9.38517 10.7032 9.32527 10.7038 9.26536C10.7122 8.67888 10.72 8.6651 11.3114 8.6645C14.1009 8.6627 16.8898 8.6633 19.6794 8.66809C19.8715 8.66809 20.0822 8.61058 20.2474 8.77293V8.77353Z" fill="#F87D88"/>
</g>
<defs>
<clipPath id="clip0_388_1773">
<rect width="164" height="35.1429" fill="white"/>
</clipPath>
</defs>
</svg>
